<mxfile host="app.diagrams.net" agent="Mozilla/5.0 (X11; Linux x86_64) AppleWebKit/537.36 (KHTML, like Gecko) Chrome/132.0.0.0 Safari/537.36" version="26.0.14">
  <diagram name="Page-1" id="9GZb_lbjTZQzitMhbxFv">
    <mxGraphModel dx="2517" dy="816" grid="1" gridSize="10" guides="1" tooltips="1" connect="1" arrows="1" fold="1" page="1" pageScale="1" pageWidth="850" pageHeight="1100" math="0" shadow="0">
      <root>
        <mxCell id="0" />
        <mxCell id="1" parent="0" />
        <mxCell id="cyP2X10ie1hHQHi7Uke7-22" style="rounded=0;orthogonalLoop=1;jettySize=auto;html=1;exitX=0;exitY=0;exitDx=0;exitDy=0;entryX=1;entryY=0.5;entryDx=0;entryDy=0;strokeWidth=2;fillColor=#ffe6cc;strokeColor=#d79b00;endArrow=none;startFill=0;" edge="1" parent="1" source="-qzhcd2LBYuXXIxxv2qr-2" target="cyP2X10ie1hHQHi7Uke7-20">
          <mxGeometry relative="1" as="geometry" />
        </mxCell>
        <mxCell id="-qzhcd2LBYuXXIxxv2qr-2" value="&lt;font style=&quot;color: rgb(0, 0, 0); font-size: 20px;&quot;&gt;&lt;b&gt;USER&lt;/b&gt;&lt;/font&gt;" style="rounded=0;whiteSpace=wrap;html=1;sketch=1;hachureGap=4;jiggle=2;curveFitting=1;fontFamily=Architects Daughter;fontSource=https%3A%2F%2Ffonts.googleapis.com%2Fcss%3Ffamily%3DArchitects%2BDaughter;fillColor=#647687;strokeColor=#314354;fontColor=#ffffff;" parent="1" vertex="1">
          <mxGeometry x="280" y="340" width="120" height="60" as="geometry" />
        </mxCell>
        <mxCell id="-qzhcd2LBYuXXIxxv2qr-3" value="&lt;font style=&quot;font-size: 17px;&quot;&gt;Email&lt;/font&gt;" style="ellipse;whiteSpace=wrap;html=1;sketch=1;hachureGap=4;jiggle=2;curveFitting=1;fontFamily=Architects Daughter;fontSource=https%3A%2F%2Ffonts.googleapis.com%2Fcss%3Ffamily%3DArchitects%2BDaughter;fillColor=#f5f5f5;strokeColor=#666666;gradientColor=#b3b3b3;labelBackgroundColor=none;" parent="1" vertex="1">
          <mxGeometry x="480" y="220" width="70" height="50" as="geometry" />
        </mxCell>
        <mxCell id="-qzhcd2LBYuXXIxxv2qr-16" style="edgeStyle=orthogonalEdgeStyle;rounded=0;hachureGap=4;orthogonalLoop=1;jettySize=auto;html=1;entryX=1;entryY=0.5;entryDx=0;entryDy=0;fontFamily=Architects Daughter;fontSource=https%3A%2F%2Ffonts.googleapis.com%2Fcss%3Ffamily%3DArchitects%2BDaughter;curved=1;" parent="1" source="-qzhcd2LBYuXXIxxv2qr-4" target="-qzhcd2LBYuXXIxxv2qr-2" edge="1">
          <mxGeometry relative="1" as="geometry" />
        </mxCell>
        <mxCell id="-qzhcd2LBYuXXIxxv2qr-4" value="&lt;font style=&quot;font-size: 17px;&quot;&gt;Pass&lt;/font&gt;" style="ellipse;whiteSpace=wrap;html=1;sketch=1;hachureGap=4;jiggle=2;curveFitting=1;fontFamily=Architects Daughter;fontSource=https%3A%2F%2Ffonts.googleapis.com%2Fcss%3Ffamily%3DArchitects%2BDaughter;fillColor=#f5f5f5;strokeColor=#666666;gradientColor=#b3b3b3;" parent="1" vertex="1">
          <mxGeometry x="520" y="290" width="70" height="50" as="geometry" />
        </mxCell>
        <mxCell id="-qzhcd2LBYuXXIxxv2qr-17" style="edgeStyle=orthogonalEdgeStyle;rounded=0;sketch=1;hachureGap=4;jiggle=2;curveFitting=1;orthogonalLoop=1;jettySize=auto;html=1;entryX=1;entryY=0.75;entryDx=0;entryDy=0;fontFamily=Architects Daughter;fontSource=https%3A%2F%2Ffonts.googleapis.com%2Fcss%3Ffamily%3DArchitects%2BDaughter;" parent="1" source="-qzhcd2LBYuXXIxxv2qr-5" target="-qzhcd2LBYuXXIxxv2qr-2" edge="1">
          <mxGeometry relative="1" as="geometry" />
        </mxCell>
        <mxCell id="-qzhcd2LBYuXXIxxv2qr-21" style="edgeStyle=orthogonalEdgeStyle;rounded=0;sketch=1;hachureGap=4;jiggle=2;curveFitting=1;orthogonalLoop=1;jettySize=auto;html=1;exitX=1;exitY=0.5;exitDx=0;exitDy=0;entryX=0;entryY=0.5;entryDx=0;entryDy=0;fontFamily=Architects Daughter;fontSource=https%3A%2F%2Ffonts.googleapis.com%2Fcss%3Ffamily%3DArchitects%2BDaughter;" parent="1" source="-qzhcd2LBYuXXIxxv2qr-5" target="-qzhcd2LBYuXXIxxv2qr-19" edge="1">
          <mxGeometry relative="1" as="geometry" />
        </mxCell>
        <mxCell id="-qzhcd2LBYuXXIxxv2qr-22" style="edgeStyle=orthogonalEdgeStyle;rounded=0;sketch=1;hachureGap=4;jiggle=2;curveFitting=1;orthogonalLoop=1;jettySize=auto;html=1;fontFamily=Architects Daughter;fontSource=https%3A%2F%2Ffonts.googleapis.com%2Fcss%3Ffamily%3DArchitects%2BDaughter;" parent="1" source="-qzhcd2LBYuXXIxxv2qr-5" target="-qzhcd2LBYuXXIxxv2qr-20" edge="1">
          <mxGeometry relative="1" as="geometry" />
        </mxCell>
        <mxCell id="-qzhcd2LBYuXXIxxv2qr-5" value="&lt;font style=&quot;font-size: 17px;&quot;&gt;Name&lt;/font&gt;" style="ellipse;whiteSpace=wrap;html=1;sketch=1;hachureGap=4;jiggle=2;curveFitting=1;fontFamily=Architects Daughter;fontSource=https%3A%2F%2Ffonts.googleapis.com%2Fcss%3Ffamily%3DArchitects%2BDaughter;fillColor=#f5f5f5;strokeColor=#666666;gradientColor=#b3b3b3;" parent="1" vertex="1">
          <mxGeometry x="510" y="370" width="70" height="50" as="geometry" />
        </mxCell>
        <mxCell id="-qzhcd2LBYuXXIxxv2qr-6" value="&lt;font style=&quot;font-size: 17px;&quot;&gt;profile&lt;/font&gt;&lt;div&gt;&lt;font style=&quot;font-size: 17px;&quot;&gt;img&lt;/font&gt;&lt;/div&gt;" style="ellipse;whiteSpace=wrap;html=1;sketch=1;hachureGap=4;jiggle=2;curveFitting=1;fontFamily=Architects Daughter;fontSource=https%3A%2F%2Ffonts.googleapis.com%2Fcss%3Ffamily%3DArchitects%2BDaughter;fillColor=#f5f5f5;strokeColor=#666666;gradientColor=#b3b3b3;" parent="1" vertex="1">
          <mxGeometry x="380" y="190" width="90" height="50" as="geometry" />
        </mxCell>
        <mxCell id="-qzhcd2LBYuXXIxxv2qr-15" style="edgeStyle=orthogonalEdgeStyle;rounded=0;sketch=1;hachureGap=4;jiggle=2;curveFitting=1;orthogonalLoop=1;jettySize=auto;html=1;exitX=1;exitY=0.5;exitDx=0;exitDy=0;entryX=0.5;entryY=0;entryDx=0;entryDy=0;fontFamily=Architects Daughter;fontSource=https%3A%2F%2Ffonts.googleapis.com%2Fcss%3Ffamily%3DArchitects%2BDaughter;curved=1;" parent="1" source="-qzhcd2LBYuXXIxxv2qr-8" target="-qzhcd2LBYuXXIxxv2qr-2" edge="1">
          <mxGeometry relative="1" as="geometry">
            <Array as="points">
              <mxPoint x="310" y="235" />
              <mxPoint x="310" y="340" />
            </Array>
          </mxGeometry>
        </mxCell>
        <mxCell id="-qzhcd2LBYuXXIxxv2qr-8" value="&lt;span style=&quot;font-size: 17px;&quot;&gt;role&lt;/span&gt;" style="ellipse;whiteSpace=wrap;html=1;sketch=1;hachureGap=4;jiggle=2;curveFitting=1;fontFamily=Architects Daughter;fontSource=https%3A%2F%2Ffonts.googleapis.com%2Fcss%3Ffamily%3DArchitects%2BDaughter;fillColor=#f5f5f5;strokeColor=#666666;gradientColor=#b3b3b3;" parent="1" vertex="1">
          <mxGeometry x="180" y="210" width="90" height="50" as="geometry" />
        </mxCell>
        <mxCell id="-qzhcd2LBYuXXIxxv2qr-9" value="&lt;font style=&quot;font-size: 17px;&quot;&gt;phone&lt;/font&gt;" style="ellipse;whiteSpace=wrap;html=1;sketch=1;hachureGap=4;jiggle=2;curveFitting=1;fontFamily=Architects Daughter;fontSource=https%3A%2F%2Ffonts.googleapis.com%2Fcss%3Ffamily%3DArchitects%2BDaughter;fillColor=#f5f5f5;strokeColor=#666666;gradientColor=#b3b3b3;" parent="1" vertex="1">
          <mxGeometry x="440" y="420" width="70" height="50" as="geometry" />
        </mxCell>
        <mxCell id="-qzhcd2LBYuXXIxxv2qr-12" style="edgeStyle=orthogonalEdgeStyle;rounded=0;hachureGap=4;orthogonalLoop=1;jettySize=auto;html=1;entryX=1.025;entryY=0.4;entryDx=0;entryDy=0;entryPerimeter=0;fontFamily=Architects Daughter;fontSource=https%3A%2F%2Ffonts.googleapis.com%2Fcss%3Ffamily%3DArchitects%2BDaughter;curved=1;" parent="1" source="-qzhcd2LBYuXXIxxv2qr-3" target="-qzhcd2LBYuXXIxxv2qr-2" edge="1">
          <mxGeometry relative="1" as="geometry">
            <Array as="points">
              <mxPoint x="430" y="245" />
              <mxPoint x="430" y="354" />
              <mxPoint x="403" y="354" />
            </Array>
          </mxGeometry>
        </mxCell>
        <mxCell id="-qzhcd2LBYuXXIxxv2qr-13" style="edgeStyle=orthogonalEdgeStyle;rounded=0;hachureGap=4;orthogonalLoop=1;jettySize=auto;html=1;entryX=0.983;entryY=0.15;entryDx=0;entryDy=0;entryPerimeter=0;fontFamily=Architects Daughter;fontSource=https%3A%2F%2Ffonts.googleapis.com%2Fcss%3Ffamily%3DArchitects%2BDaughter;curved=1;" parent="1" source="-qzhcd2LBYuXXIxxv2qr-6" target="-qzhcd2LBYuXXIxxv2qr-2" edge="1">
          <mxGeometry relative="1" as="geometry" />
        </mxCell>
        <mxCell id="-qzhcd2LBYuXXIxxv2qr-18" style="edgeStyle=orthogonalEdgeStyle;rounded=0;hachureGap=4;orthogonalLoop=1;jettySize=auto;html=1;entryX=0.85;entryY=1;entryDx=0;entryDy=0;entryPerimeter=0;fontFamily=Architects Daughter;fontSource=https%3A%2F%2Ffonts.googleapis.com%2Fcss%3Ffamily%3DArchitects%2BDaughter;curved=1;" parent="1" source="-qzhcd2LBYuXXIxxv2qr-9" target="-qzhcd2LBYuXXIxxv2qr-2" edge="1">
          <mxGeometry relative="1" as="geometry" />
        </mxCell>
        <mxCell id="-qzhcd2LBYuXXIxxv2qr-19" value="&lt;font style=&quot;font-size: 17px;&quot;&gt;fName&lt;/font&gt;" style="ellipse;whiteSpace=wrap;html=1;sketch=1;hachureGap=4;jiggle=2;curveFitting=1;fontFamily=Architects Daughter;fontSource=https%3A%2F%2Ffonts.googleapis.com%2Fcss%3Ffamily%3DArchitects%2BDaughter;fillColor=#f5f5f5;strokeColor=#666666;gradientColor=#b3b3b3;" parent="1" vertex="1">
          <mxGeometry x="600" y="355" width="80" height="30" as="geometry" />
        </mxCell>
        <mxCell id="-qzhcd2LBYuXXIxxv2qr-20" value="&lt;font style=&quot;font-size: 17px;&quot;&gt;LName&lt;/font&gt;" style="ellipse;whiteSpace=wrap;html=1;sketch=1;hachureGap=4;jiggle=2;curveFitting=1;fontFamily=Architects Daughter;fontSource=https%3A%2F%2Ffonts.googleapis.com%2Fcss%3Ffamily%3DArchitects%2BDaughter;fillColor=#f5f5f5;strokeColor=#666666;gradientColor=#b3b3b3;" parent="1" vertex="1">
          <mxGeometry x="600" y="400" width="70" height="30" as="geometry" />
        </mxCell>
        <mxCell id="-qzhcd2LBYuXXIxxv2qr-23" value="&lt;font style=&quot;color: rgb(0, 0, 0); font-size: 20px;&quot;&gt;&lt;b&gt;Room&lt;/b&gt;&lt;/font&gt;" style="rounded=0;whiteSpace=wrap;html=1;sketch=1;hachureGap=4;jiggle=2;curveFitting=1;fontFamily=Architects Daughter;fontSource=https%3A%2F%2Ffonts.googleapis.com%2Fcss%3Ffamily%3DArchitects%2BDaughter;fillColor=#647687;strokeColor=#314354;fontColor=#ffffff;" parent="1" vertex="1">
          <mxGeometry x="-140" y="340" width="120" height="60" as="geometry" />
        </mxCell>
        <mxCell id="-qzhcd2LBYuXXIxxv2qr-24" value="&lt;span style=&quot;font-size: 17px;&quot;&gt;Name&lt;/span&gt;" style="ellipse;whiteSpace=wrap;html=1;sketch=1;hachureGap=4;jiggle=2;curveFitting=1;fontFamily=Architects Daughter;fontSource=https%3A%2F%2Ffonts.googleapis.com%2Fcss%3Ffamily%3DArchitects%2BDaughter;fillColor=#f5f5f5;strokeColor=#666666;gradientColor=#b3b3b3;" parent="1" vertex="1">
          <mxGeometry x="-180" y="260" width="100" height="40" as="geometry" />
        </mxCell>
        <mxCell id="-qzhcd2LBYuXXIxxv2qr-25" value="&lt;span style=&quot;font-size: 17px;&quot;&gt;&lt;b&gt;&lt;u&gt;id&lt;/u&gt;&lt;/b&gt;&lt;/span&gt;" style="ellipse;whiteSpace=wrap;html=1;sketch=1;hachureGap=4;jiggle=2;curveFitting=1;fontFamily=Architects Daughter;fontSource=https%3A%2F%2Ffonts.googleapis.com%2Fcss%3Ffamily%3DArchitects%2BDaughter;fillColor=#f5f5f5;strokeColor=#666666;gradientColor=#b3b3b3;" parent="1" vertex="1">
          <mxGeometry x="-260" y="320" width="90" height="35" as="geometry" />
        </mxCell>
        <mxCell id="-qzhcd2LBYuXXIxxv2qr-27" style="edgeStyle=orthogonalEdgeStyle;rounded=0;sketch=1;hachureGap=4;jiggle=2;curveFitting=1;orthogonalLoop=1;jettySize=auto;html=1;entryX=0.133;entryY=-0.05;entryDx=0;entryDy=0;entryPerimeter=0;fontFamily=Architects Daughter;fontSource=https%3A%2F%2Ffonts.googleapis.com%2Fcss%3Ffamily%3DArchitects%2BDaughter;" parent="1" source="-qzhcd2LBYuXXIxxv2qr-24" target="-qzhcd2LBYuXXIxxv2qr-23" edge="1">
          <mxGeometry relative="1" as="geometry" />
        </mxCell>
        <mxCell id="-qzhcd2LBYuXXIxxv2qr-28" style="edgeStyle=orthogonalEdgeStyle;rounded=0;sketch=1;hachureGap=4;jiggle=2;curveFitting=1;orthogonalLoop=1;jettySize=auto;html=1;entryX=0;entryY=0.117;entryDx=0;entryDy=0;entryPerimeter=0;fontFamily=Architects Daughter;fontSource=https%3A%2F%2Ffonts.googleapis.com%2Fcss%3Ffamily%3DArchitects%2BDaughter;" parent="1" source="-qzhcd2LBYuXXIxxv2qr-25" target="-qzhcd2LBYuXXIxxv2qr-23" edge="1">
          <mxGeometry relative="1" as="geometry" />
        </mxCell>
        <mxCell id="-qzhcd2LBYuXXIxxv2qr-71" style="rounded=0;hachureGap=4;orthogonalLoop=1;jettySize=auto;html=1;exitX=1;exitY=1;exitDx=0;exitDy=0;entryX=0.5;entryY=0;entryDx=0;entryDy=0;fontFamily=Architects Daughter;fontSource=https%3A%2F%2Ffonts.googleapis.com%2Fcss%3Ffamily%3DArchitects%2BDaughter;endArrow=none;startFill=0;fillColor=#fff2cc;gradientColor=#ffd966;strokeColor=#d6b656;strokeWidth=2;shape=link;" parent="1" source="-qzhcd2LBYuXXIxxv2qr-33" target="-qzhcd2LBYuXXIxxv2qr-70" edge="1">
          <mxGeometry relative="1" as="geometry" />
        </mxCell>
        <mxCell id="-qzhcd2LBYuXXIxxv2qr-84" style="rounded=0;hachureGap=4;orthogonalLoop=1;jettySize=auto;html=1;entryX=0;entryY=0.5;entryDx=0;entryDy=0;fontFamily=Architects Daughter;fontSource=https%3A%2F%2Ffonts.googleapis.com%2Fcss%3Ffamily%3DArchitects%2BDaughter;endArrow=none;startFill=0;strokeWidth=2;fillColor=#fff2cc;gradientColor=#ffd966;strokeColor=#d6b656;" parent="1" source="-qzhcd2LBYuXXIxxv2qr-33" target="-qzhcd2LBYuXXIxxv2qr-83" edge="1">
          <mxGeometry relative="1" as="geometry" />
        </mxCell>
        <mxCell id="-qzhcd2LBYuXXIxxv2qr-33" value="&lt;font style=&quot;color: rgb(0, 0, 0); font-size: 20px;&quot;&gt;&lt;b&gt;Product&lt;/b&gt;&lt;/font&gt;" style="rounded=0;whiteSpace=wrap;html=1;sketch=1;hachureGap=4;jiggle=2;curveFitting=1;fontFamily=Architects Daughter;fontSource=https%3A%2F%2Ffonts.googleapis.com%2Fcss%3Ffamily%3DArchitects%2BDaughter;fillColor=#647687;strokeColor=#314354;fontColor=#ffffff;" parent="1" vertex="1">
          <mxGeometry x="-140" y="640" width="120" height="60" as="geometry" />
        </mxCell>
        <mxCell id="-qzhcd2LBYuXXIxxv2qr-40" style="edgeStyle=orthogonalEdgeStyle;rounded=0;sketch=1;hachureGap=4;jiggle=2;curveFitting=1;orthogonalLoop=1;jettySize=auto;html=1;entryX=0;entryY=0.5;entryDx=0;entryDy=0;fontFamily=Architects Daughter;fontSource=https%3A%2F%2Ffonts.googleapis.com%2Fcss%3Ffamily%3DArchitects%2BDaughter;curved=1;" parent="1" source="-qzhcd2LBYuXXIxxv2qr-34" target="-qzhcd2LBYuXXIxxv2qr-33" edge="1">
          <mxGeometry relative="1" as="geometry">
            <Array as="points">
              <mxPoint x="-160" y="670" />
            </Array>
          </mxGeometry>
        </mxCell>
        <mxCell id="-qzhcd2LBYuXXIxxv2qr-34" value="&lt;span style=&quot;font-size: 17px;&quot;&gt;Name&lt;/span&gt;" style="ellipse;whiteSpace=wrap;html=1;sketch=1;hachureGap=4;jiggle=2;curveFitting=1;fontFamily=Architects Daughter;fontSource=https%3A%2F%2Ffonts.googleapis.com%2Fcss%3Ffamily%3DArchitects%2BDaughter;fillColor=#f5f5f5;strokeColor=#666666;gradientColor=#b3b3b3;" parent="1" vertex="1">
          <mxGeometry x="-260" y="590" width="100" height="40" as="geometry" />
        </mxCell>
        <mxCell id="-qzhcd2LBYuXXIxxv2qr-41" style="edgeStyle=orthogonalEdgeStyle;rounded=0;sketch=1;hachureGap=4;jiggle=2;curveFitting=1;orthogonalLoop=1;jettySize=auto;html=1;fontFamily=Architects Daughter;fontSource=https%3A%2F%2Ffonts.googleapis.com%2Fcss%3Ffamily%3DArchitects%2BDaughter;" parent="1" source="-qzhcd2LBYuXXIxxv2qr-35" target="-qzhcd2LBYuXXIxxv2qr-33" edge="1">
          <mxGeometry relative="1" as="geometry" />
        </mxCell>
        <mxCell id="-qzhcd2LBYuXXIxxv2qr-35" value="&lt;span style=&quot;font-size: 17px;&quot;&gt;Price&lt;/span&gt;" style="ellipse;whiteSpace=wrap;html=1;sketch=1;hachureGap=4;jiggle=2;curveFitting=1;fontFamily=Architects Daughter;fontSource=https%3A%2F%2Ffonts.googleapis.com%2Fcss%3Ffamily%3DArchitects%2BDaughter;fillColor=#f5f5f5;strokeColor=#666666;gradientColor=#b3b3b3;" parent="1" vertex="1">
          <mxGeometry x="-310" y="650" width="100" height="40" as="geometry" />
        </mxCell>
        <mxCell id="-qzhcd2LBYuXXIxxv2qr-42" style="edgeStyle=orthogonalEdgeStyle;rounded=0;hachureGap=4;orthogonalLoop=1;jettySize=auto;html=1;entryX=0;entryY=0.75;entryDx=0;entryDy=0;fontFamily=Architects Daughter;fontSource=https%3A%2F%2Ffonts.googleapis.com%2Fcss%3Ffamily%3DArchitects%2BDaughter;curved=1;" parent="1" source="-qzhcd2LBYuXXIxxv2qr-36" target="-qzhcd2LBYuXXIxxv2qr-33" edge="1">
          <mxGeometry relative="1" as="geometry" />
        </mxCell>
        <mxCell id="-qzhcd2LBYuXXIxxv2qr-36" value="&lt;span style=&quot;font-size: 17px;&quot;&gt;img&lt;/span&gt;" style="ellipse;whiteSpace=wrap;html=1;sketch=1;hachureGap=4;jiggle=2;curveFitting=1;fontFamily=Architects Daughter;fontSource=https%3A%2F%2Ffonts.googleapis.com%2Fcss%3Ffamily%3DArchitects%2BDaughter;fillColor=#f5f5f5;strokeColor=#666666;gradientColor=#b3b3b3;" parent="1" vertex="1">
          <mxGeometry x="-280" y="700" width="100" height="40" as="geometry" />
        </mxCell>
        <mxCell id="-qzhcd2LBYuXXIxxv2qr-43" style="edgeStyle=orthogonalEdgeStyle;rounded=0;sketch=1;hachureGap=4;jiggle=2;curveFitting=1;orthogonalLoop=1;jettySize=auto;html=1;fontFamily=Architects Daughter;fontSource=https%3A%2F%2Ffonts.googleapis.com%2Fcss%3Ffamily%3DArchitects%2BDaughter;curved=1;" parent="1" source="-qzhcd2LBYuXXIxxv2qr-38" target="-qzhcd2LBYuXXIxxv2qr-33" edge="1">
          <mxGeometry relative="1" as="geometry" />
        </mxCell>
        <mxCell id="-qzhcd2LBYuXXIxxv2qr-38" value="&lt;span style=&quot;font-size: 17px;&quot;&gt;status&lt;/span&gt;" style="ellipse;whiteSpace=wrap;html=1;sketch=1;hachureGap=4;jiggle=2;curveFitting=1;fontFamily=Architects Daughter;fontSource=https%3A%2F%2Ffonts.googleapis.com%2Fcss%3Ffamily%3DArchitects%2BDaughter;fillColor=#f5f5f5;strokeColor=#666666;gradientColor=#b3b3b3;" parent="1" vertex="1">
          <mxGeometry x="-200" y="730" width="100" height="40" as="geometry" />
        </mxCell>
        <mxCell id="-qzhcd2LBYuXXIxxv2qr-48" style="rounded=0;hachureGap=4;orthogonalLoop=1;jettySize=auto;html=1;fontFamily=Architects Daughter;fontSource=https%3A%2F%2Ffonts.googleapis.com%2Fcss%3Ffamily%3DArchitects%2BDaughter;fillColor=#fff2cc;gradientColor=#ffd966;strokeColor=#d6b656;startArrow=none;startFill=0;endArrow=none;strokeWidth=2;" parent="1" source="-qzhcd2LBYuXXIxxv2qr-47" target="-qzhcd2LBYuXXIxxv2qr-23" edge="1">
          <mxGeometry relative="1" as="geometry" />
        </mxCell>
        <mxCell id="-qzhcd2LBYuXXIxxv2qr-49" style="rounded=0;hachureGap=4;orthogonalLoop=1;jettySize=auto;html=1;entryX=0;entryY=0.5;entryDx=0;entryDy=0;fontFamily=Architects Daughter;fontSource=https%3A%2F%2Ffonts.googleapis.com%2Fcss%3Ffamily%3DArchitects%2BDaughter;fillColor=#fff2cc;gradientColor=#ffd966;strokeColor=#d6b656;endArrow=none;startFill=0;strokeWidth=2;shape=link;" parent="1" source="-qzhcd2LBYuXXIxxv2qr-47" target="-qzhcd2LBYuXXIxxv2qr-2" edge="1">
          <mxGeometry relative="1" as="geometry" />
        </mxCell>
        <mxCell id="-qzhcd2LBYuXXIxxv2qr-47" value="&lt;b&gt;Working inside&lt;/b&gt;" style="rhombus;whiteSpace=wrap;html=1;sketch=1;hachureGap=4;jiggle=2;curveFitting=1;fontFamily=Architects Daughter;fontSource=https%3A%2F%2Ffonts.googleapis.com%2Fcss%3Ffamily%3DArchitects%2BDaughter;fillColor=#fff2cc;gradientColor=#ffd966;strokeColor=#d6b656;" parent="1" vertex="1">
          <mxGeometry x="70" y="340" width="140" height="80" as="geometry" />
        </mxCell>
        <mxCell id="-qzhcd2LBYuXXIxxv2qr-53" style="edgeStyle=orthogonalEdgeStyle;rounded=0;sketch=1;hachureGap=4;jiggle=2;curveFitting=1;orthogonalLoop=1;jettySize=auto;html=1;fontFamily=Architects Daughter;fontSource=https%3A%2F%2Ffonts.googleapis.com%2Fcss%3Ffamily%3DArchitects%2BDaughter;curved=1;" parent="1" source="-qzhcd2LBYuXXIxxv2qr-51" target="-qzhcd2LBYuXXIxxv2qr-52" edge="1">
          <mxGeometry relative="1" as="geometry" />
        </mxCell>
        <mxCell id="-qzhcd2LBYuXXIxxv2qr-51" value="&lt;font color=&quot;#000000&quot;&gt;&lt;span style=&quot;font-size: 20px;&quot;&gt;&lt;b&gt;Category&lt;/b&gt;&lt;/span&gt;&lt;/font&gt;" style="rounded=0;whiteSpace=wrap;html=1;sketch=1;hachureGap=4;jiggle=2;curveFitting=1;fontFamily=Architects Daughter;fontSource=https%3A%2F%2Ffonts.googleapis.com%2Fcss%3Ffamily%3DArchitects%2BDaughter;fillColor=#647687;strokeColor=#314354;fontColor=#ffffff;" parent="1" vertex="1">
          <mxGeometry x="60" y="820" width="120" height="60" as="geometry" />
        </mxCell>
        <mxCell id="-qzhcd2LBYuXXIxxv2qr-52" value="&lt;span style=&quot;font-size: 17px;&quot;&gt;Name&lt;/span&gt;" style="ellipse;whiteSpace=wrap;html=1;sketch=1;hachureGap=4;jiggle=2;curveFitting=1;fontFamily=Architects Daughter;fontSource=https%3A%2F%2Ffonts.googleapis.com%2Fcss%3Ffamily%3DArchitects%2BDaughter;fillColor=#f5f5f5;strokeColor=#666666;gradientColor=#b3b3b3;" parent="1" vertex="1">
          <mxGeometry x="-60" y="880" width="100" height="40" as="geometry" />
        </mxCell>
        <mxCell id="-qzhcd2LBYuXXIxxv2qr-56" style="edgeStyle=orthogonalEdgeStyle;rounded=0;hachureGap=4;orthogonalLoop=1;jettySize=auto;html=1;entryX=0;entryY=0;entryDx=0;entryDy=0;fontFamily=Architects Daughter;fontSource=https%3A%2F%2Ffonts.googleapis.com%2Fcss%3Ffamily%3DArchitects%2BDaughter;curved=1;" parent="1" source="-qzhcd2LBYuXXIxxv2qr-54" target="-qzhcd2LBYuXXIxxv2qr-55" edge="1">
          <mxGeometry relative="1" as="geometry" />
        </mxCell>
        <mxCell id="-qzhcd2LBYuXXIxxv2qr-65" style="edgeStyle=orthogonalEdgeStyle;rounded=0;hachureGap=4;orthogonalLoop=1;jettySize=auto;html=1;exitX=0.25;exitY=1;exitDx=0;exitDy=0;fontFamily=Architects Daughter;fontSource=https%3A%2F%2Ffonts.googleapis.com%2Fcss%3Ffamily%3DArchitects%2BDaughter;curved=1;" parent="1" source="-qzhcd2LBYuXXIxxv2qr-54" target="-qzhcd2LBYuXXIxxv2qr-64" edge="1">
          <mxGeometry relative="1" as="geometry" />
        </mxCell>
        <mxCell id="cyP2X10ie1hHQHi7Uke7-36" style="rounded=0;orthogonalLoop=1;jettySize=auto;html=1;strokeWidth=2;endArrow=none;startFill=0;fillColor=#0050ef;strokeColor=#001DBC;" edge="1" parent="1" source="-qzhcd2LBYuXXIxxv2qr-54" target="cyP2X10ie1hHQHi7Uke7-34">
          <mxGeometry relative="1" as="geometry" />
        </mxCell>
        <mxCell id="-qzhcd2LBYuXXIxxv2qr-54" value="&lt;font color=&quot;#000000&quot;&gt;&lt;span style=&quot;font-size: 20px;&quot;&gt;&lt;b&gt;Order&lt;/b&gt;&lt;/span&gt;&lt;/font&gt;" style="rounded=0;whiteSpace=wrap;html=1;sketch=1;hachureGap=4;jiggle=2;curveFitting=1;fontFamily=Architects Daughter;fontSource=https%3A%2F%2Ffonts.googleapis.com%2Fcss%3Ffamily%3DArchitects%2BDaughter;fillColor=#647687;strokeColor=#314354;fontColor=#ffffff;" parent="1" vertex="1">
          <mxGeometry x="505" y="740" width="120" height="60" as="geometry" />
        </mxCell>
        <mxCell id="-qzhcd2LBYuXXIxxv2qr-55" value="&lt;span style=&quot;font-size: 17px;&quot;&gt;date&lt;/span&gt;" style="ellipse;whiteSpace=wrap;html=1;sketch=1;hachureGap=4;jiggle=2;curveFitting=1;fontFamily=Architects Daughter;fontSource=https%3A%2F%2Ffonts.googleapis.com%2Fcss%3Ffamily%3DArchitects%2BDaughter;fillColor=#f5f5f5;strokeColor=#666666;gradientColor=#b3b3b3;" parent="1" vertex="1">
          <mxGeometry x="690" y="720" width="100" height="40" as="geometry" />
        </mxCell>
        <mxCell id="-qzhcd2LBYuXXIxxv2qr-57" value="&lt;span style=&quot;font-size: 17px;&quot;&gt;status&lt;/span&gt;" style="ellipse;whiteSpace=wrap;html=1;sketch=1;hachureGap=4;jiggle=2;curveFitting=1;fontFamily=Architects Daughter;fontSource=https%3A%2F%2Ffonts.googleapis.com%2Fcss%3Ffamily%3DArchitects%2BDaughter;fillColor=#f5f5f5;strokeColor=#666666;gradientColor=#b3b3b3;" parent="1" vertex="1">
          <mxGeometry x="640" y="820" width="100" height="40" as="geometry" />
        </mxCell>
        <mxCell id="-qzhcd2LBYuXXIxxv2qr-60" style="edgeStyle=orthogonalEdgeStyle;rounded=0;sketch=1;hachureGap=4;jiggle=2;curveFitting=1;orthogonalLoop=1;jettySize=auto;html=1;exitX=1;exitY=0.75;exitDx=0;exitDy=0;entryX=0.41;entryY=0;entryDx=0;entryDy=0;entryPerimeter=0;fontFamily=Architects Daughter;fontSource=https%3A%2F%2Ffonts.googleapis.com%2Fcss%3Ffamily%3DArchitects%2BDaughter;curved=1;" parent="1" source="-qzhcd2LBYuXXIxxv2qr-54" target="-qzhcd2LBYuXXIxxv2qr-57" edge="1">
          <mxGeometry relative="1" as="geometry" />
        </mxCell>
        <mxCell id="-qzhcd2LBYuXXIxxv2qr-61" value="&lt;span style=&quot;font-size: 17px;&quot;&gt;total_price&lt;/span&gt;" style="ellipse;whiteSpace=wrap;html=1;sketch=1;hachureGap=4;jiggle=2;curveFitting=1;fontFamily=Architects Daughter;fontSource=https%3A%2F%2Ffonts.googleapis.com%2Fcss%3Ffamily%3DArchitects%2BDaughter;dashed=1;dashPattern=1 2;" parent="1" vertex="1">
          <mxGeometry x="530" y="840" width="100" height="40" as="geometry" />
        </mxCell>
        <mxCell id="-qzhcd2LBYuXXIxxv2qr-62" style="edgeStyle=orthogonalEdgeStyle;rounded=0;sketch=1;hachureGap=4;jiggle=2;curveFitting=1;orthogonalLoop=1;jettySize=auto;html=1;entryX=0.34;entryY=-0.05;entryDx=0;entryDy=0;entryPerimeter=0;fontFamily=Architects Daughter;fontSource=https%3A%2F%2Ffonts.googleapis.com%2Fcss%3Ffamily%3DArchitects%2BDaughter;" parent="1" source="-qzhcd2LBYuXXIxxv2qr-54" target="-qzhcd2LBYuXXIxxv2qr-61" edge="1">
          <mxGeometry relative="1" as="geometry" />
        </mxCell>
        <mxCell id="-qzhcd2LBYuXXIxxv2qr-64" value="&lt;span style=&quot;font-size: 17px;&quot;&gt;Note&lt;/span&gt;" style="ellipse;whiteSpace=wrap;html=1;sketch=1;hachureGap=4;jiggle=2;curveFitting=1;fontFamily=Architects Daughter;fontSource=https%3A%2F%2Ffonts.googleapis.com%2Fcss%3Ffamily%3DArchitects%2BDaughter;fillColor=#f5f5f5;strokeColor=#666666;gradientColor=#b3b3b3;" parent="1" vertex="1">
          <mxGeometry x="425" y="830" width="100" height="40" as="geometry" />
        </mxCell>
        <mxCell id="-qzhcd2LBYuXXIxxv2qr-68" value="1" style="text;html=1;align=center;verticalAlign=middle;whiteSpace=wrap;rounded=0;fontFamily=Architects Daughter;fontSource=https%3A%2F%2Ffonts.googleapis.com%2Fcss%3Ffamily%3DArchitects%2BDaughter;fillColor=#fff2cc;gradientColor=#ffd966;strokeColor=#d6b656;" parent="1" vertex="1">
          <mxGeometry x="-10" y="390" width="30" height="10" as="geometry" />
        </mxCell>
        <mxCell id="-qzhcd2LBYuXXIxxv2qr-69" value="N" style="text;html=1;align=center;verticalAlign=middle;whiteSpace=wrap;rounded=0;fontFamily=Architects Daughter;fontSource=https%3A%2F%2Ffonts.googleapis.com%2Fcss%3Ffamily%3DArchitects%2BDaughter;fillColor=#fff2cc;gradientColor=#ffd966;strokeColor=#d6b656;" parent="1" vertex="1">
          <mxGeometry x="240" y="390" width="30" height="10" as="geometry" />
        </mxCell>
        <mxCell id="-qzhcd2LBYuXXIxxv2qr-72" style="rounded=0;hachureGap=4;orthogonalLoop=1;jettySize=auto;html=1;entryX=0;entryY=0.25;entryDx=0;entryDy=0;fontFamily=Architects Daughter;fontSource=https%3A%2F%2Ffonts.googleapis.com%2Fcss%3Ffamily%3DArchitects%2BDaughter;endArrow=none;startFill=0;fillColor=#fff2cc;gradientColor=#ffd966;strokeColor=#d6b656;strokeWidth=2;" parent="1" source="-qzhcd2LBYuXXIxxv2qr-70" target="-qzhcd2LBYuXXIxxv2qr-51" edge="1">
          <mxGeometry relative="1" as="geometry" />
        </mxCell>
        <mxCell id="-qzhcd2LBYuXXIxxv2qr-70" value="Has" style="rhombus;whiteSpace=wrap;html=1;sketch=1;hachureGap=4;jiggle=2;curveFitting=1;fontFamily=Architects Daughter;fontSource=https%3A%2F%2Ffonts.googleapis.com%2Fcss%3Ffamily%3DArchitects%2BDaughter;fillColor=#fff2cc;gradientColor=#ffd966;strokeColor=#d6b656;" parent="1" vertex="1">
          <mxGeometry x="-40" y="750" width="60" height="50" as="geometry" />
        </mxCell>
        <mxCell id="-qzhcd2LBYuXXIxxv2qr-73" value="1" style="text;html=1;align=center;verticalAlign=middle;whiteSpace=wrap;rounded=0;fontFamily=Architects Daughter;fontSource=https%3A%2F%2Ffonts.googleapis.com%2Fcss%3Ffamily%3DArchitects%2BDaughter;fillColor=#fff2cc;gradientColor=#ffd966;strokeColor=#d6b656;" parent="1" vertex="1">
          <mxGeometry x="20" y="835" width="30" height="10" as="geometry" />
        </mxCell>
        <mxCell id="-qzhcd2LBYuXXIxxv2qr-74" value="N" style="text;html=1;align=center;verticalAlign=middle;whiteSpace=wrap;rounded=0;fontFamily=Architects Daughter;fontSource=https%3A%2F%2Ffonts.googleapis.com%2Fcss%3Ffamily%3DArchitects%2BDaughter;fillColor=#fff2cc;gradientColor=#ffd966;strokeColor=#d6b656;" parent="1" vertex="1">
          <mxGeometry x="-60" y="710" width="30" height="10" as="geometry" />
        </mxCell>
        <mxCell id="-qzhcd2LBYuXXIxxv2qr-78" value="&lt;b&gt;Has&lt;/b&gt;" style="rhombus;whiteSpace=wrap;html=1;sketch=1;hachureGap=4;jiggle=2;curveFitting=1;fontFamily=Architects Daughter;fontSource=https%3A%2F%2Ffonts.googleapis.com%2Fcss%3Ffamily%3DArchitects%2BDaughter;fillColor=#ffcd28;gradientColor=#ffa500;strokeColor=#d79b00;" parent="1" vertex="1">
          <mxGeometry x="250" y="620" width="100" height="40" as="geometry" />
        </mxCell>
        <mxCell id="-qzhcd2LBYuXXIxxv2qr-79" style="rounded=0;hachureGap=4;orthogonalLoop=1;jettySize=auto;html=1;entryX=0.67;entryY=0.942;entryDx=0;entryDy=0;entryPerimeter=0;fontFamily=Architects Daughter;fontSource=https%3A%2F%2Ffonts.googleapis.com%2Fcss%3Ffamily%3DArchitects%2BDaughter;strokeWidth=2;endArrow=none;startFill=0;fillColor=#ffcd28;gradientColor=#ffa500;strokeColor=#d79b00;shape=link;" parent="1" source="-qzhcd2LBYuXXIxxv2qr-54" target="-qzhcd2LBYuXXIxxv2qr-78" edge="1">
          <mxGeometry relative="1" as="geometry" />
        </mxCell>
        <mxCell id="-qzhcd2LBYuXXIxxv2qr-80" style="rounded=0;sketch=1;hachureGap=4;jiggle=2;curveFitting=1;orthogonalLoop=1;jettySize=auto;html=1;exitX=0;exitY=0.5;exitDx=0;exitDy=0;entryX=0.857;entryY=1.031;entryDx=0;entryDy=0;entryPerimeter=0;fontFamily=Architects Daughter;fontSource=https%3A%2F%2Ffonts.googleapis.com%2Fcss%3Ffamily%3DArchitects%2BDaughter;endArrow=none;startFill=0;fillColor=#ffcd28;gradientColor=#ffa500;strokeColor=#d79b00;" parent="1" source="-qzhcd2LBYuXXIxxv2qr-78" target="-qzhcd2LBYuXXIxxv2qr-23" edge="1">
          <mxGeometry relative="1" as="geometry" />
        </mxCell>
        <mxCell id="-qzhcd2LBYuXXIxxv2qr-81" value="N" style="text;html=1;align=center;verticalAlign=middle;whiteSpace=wrap;rounded=0;fontFamily=Architects Daughter;fontSource=https%3A%2F%2Ffonts.googleapis.com%2Fcss%3Ffamily%3DArchitects%2BDaughter;fillColor=#fff2cc;gradientColor=#ffd966;strokeColor=#d6b656;" parent="1" vertex="1">
          <mxGeometry x="500" y="715" width="30" height="10" as="geometry" />
        </mxCell>
        <mxCell id="-qzhcd2LBYuXXIxxv2qr-82" value="1" style="text;html=1;align=center;verticalAlign=middle;whiteSpace=wrap;rounded=0;fontFamily=Architects Daughter;fontSource=https%3A%2F%2Ffonts.googleapis.com%2Fcss%3Ffamily%3DArchitects%2BDaughter;fillColor=#fff2cc;gradientColor=#ffd966;strokeColor=#d6b656;" parent="1" vertex="1">
          <mxGeometry x="-70" y="410" width="30" height="10" as="geometry" />
        </mxCell>
        <mxCell id="-qzhcd2LBYuXXIxxv2qr-87" style="edgeStyle=orthogonalEdgeStyle;rounded=0;sketch=1;hachureGap=4;jiggle=2;curveFitting=1;orthogonalLoop=1;jettySize=auto;html=1;exitX=0;exitY=0;exitDx=0;exitDy=0;entryX=0.5;entryY=1;entryDx=0;entryDy=0;fontFamily=Architects Daughter;fontSource=https%3A%2F%2Ffonts.googleapis.com%2Fcss%3Ffamily%3DArchitects%2BDaughter;fillColor=#ffcd28;gradientColor=#ffa500;strokeColor=#d79b00;curved=1;strokeWidth=2;" parent="1" source="-qzhcd2LBYuXXIxxv2qr-83" target="-qzhcd2LBYuXXIxxv2qr-86" edge="1">
          <mxGeometry relative="1" as="geometry" />
        </mxCell>
        <mxCell id="-qzhcd2LBYuXXIxxv2qr-83" value="&lt;b&gt;Has&lt;/b&gt;" style="rhombus;whiteSpace=wrap;html=1;sketch=1;hachureGap=4;jiggle=2;curveFitting=1;fontFamily=Architects Daughter;fontSource=https%3A%2F%2Ffonts.googleapis.com%2Fcss%3Ffamily%3DArchitects%2BDaughter;fillColor=#fff2cc;gradientColor=#ffd966;strokeColor=#d6b656;" parent="1" vertex="1">
          <mxGeometry x="130" y="695" width="100" height="40" as="geometry" />
        </mxCell>
        <mxCell id="-qzhcd2LBYuXXIxxv2qr-85" style="rounded=0;hachureGap=4;orthogonalLoop=1;jettySize=auto;html=1;entryX=0.01;entryY=0.656;entryDx=0;entryDy=0;entryPerimeter=0;fontFamily=Architects Daughter;fontSource=https%3A%2F%2Ffonts.googleapis.com%2Fcss%3Ffamily%3DArchitects%2BDaughter;strokeWidth=2;fillColor=#fff2cc;gradientColor=#ffd966;strokeColor=#d6b656;endArrow=none;startFill=0;shape=link;" parent="1" source="-qzhcd2LBYuXXIxxv2qr-83" target="-qzhcd2LBYuXXIxxv2qr-54" edge="1">
          <mxGeometry relative="1" as="geometry" />
        </mxCell>
        <mxCell id="-qzhcd2LBYuXXIxxv2qr-86" value="&lt;span style=&quot;font-size: 17px;&quot;&gt;quantiiy&lt;/span&gt;" style="ellipse;whiteSpace=wrap;html=1;sketch=1;hachureGap=4;jiggle=2;curveFitting=1;fontFamily=Architects Daughter;fontSource=https%3A%2F%2Ffonts.googleapis.com%2Fcss%3Ffamily%3DArchitects%2BDaughter;fillColor=#f5f5f5;strokeColor=#666666;gradientColor=#b3b3b3;" parent="1" vertex="1">
          <mxGeometry x="110" y="655" width="70" height="30" as="geometry" />
        </mxCell>
        <mxCell id="-qzhcd2LBYuXXIxxv2qr-91" value="M" style="text;html=1;align=center;verticalAlign=middle;whiteSpace=wrap;rounded=0;fontFamily=Architects Daughter;fontSource=https%3A%2F%2Ffonts.googleapis.com%2Fcss%3Ffamily%3DArchitects%2BDaughter;fillColor=#fff2cc;gradientColor=#ffd966;strokeColor=#d6b656;" parent="1" vertex="1">
          <mxGeometry x="-10" y="695" width="30" height="10" as="geometry" />
        </mxCell>
        <mxCell id="-qzhcd2LBYuXXIxxv2qr-92" value="N" style="text;html=1;align=center;verticalAlign=middle;whiteSpace=wrap;rounded=0;fontFamily=Architects Daughter;fontSource=https%3A%2F%2Ffonts.googleapis.com%2Fcss%3Ffamily%3DArchitects%2BDaughter;fillColor=#fff2cc;gradientColor=#ffd966;strokeColor=#d6b656;" parent="1" vertex="1">
          <mxGeometry x="470" y="780" width="30" height="10" as="geometry" />
        </mxCell>
        <mxCell id="-qzhcd2LBYuXXIxxv2qr-93" value="&lt;b&gt;Orderring&lt;/b&gt;" style="rhombus;whiteSpace=wrap;html=1;sketch=1;hachureGap=4;jiggle=2;curveFitting=1;fontFamily=Architects Daughter;fontSource=https%3A%2F%2Ffonts.googleapis.com%2Fcss%3Ffamily%3DArchitects%2BDaughter;fillColor=#fff2cc;gradientColor=#ffd966;strokeColor=#d6b656;" parent="1" vertex="1">
          <mxGeometry x="360" y="550" width="100" height="40" as="geometry" />
        </mxCell>
        <mxCell id="-qzhcd2LBYuXXIxxv2qr-94" style="rounded=0;hachureGap=4;orthogonalLoop=1;jettySize=auto;html=1;entryX=0.567;entryY=1.067;entryDx=0;entryDy=0;entryPerimeter=0;fontFamily=Architects Daughter;fontSource=https%3A%2F%2Ffonts.googleapis.com%2Fcss%3Ffamily%3DArchitects%2BDaughter;fillColor=#ffcd28;gradientColor=#ffa500;strokeColor=#d79b00;endArrow=none;startFill=0;strokeWidth=2;" parent="1" source="-qzhcd2LBYuXXIxxv2qr-93" target="-qzhcd2LBYuXXIxxv2qr-2" edge="1">
          <mxGeometry relative="1" as="geometry" />
        </mxCell>
        <mxCell id="-qzhcd2LBYuXXIxxv2qr-95" style="rounded=0;hachureGap=4;orthogonalLoop=1;jettySize=auto;html=1;entryX=0.925;entryY=-0.033;entryDx=0;entryDy=0;entryPerimeter=0;fontFamily=Architects Daughter;fontSource=https%3A%2F%2Ffonts.googleapis.com%2Fcss%3Ffamily%3DArchitects%2BDaughter;strokeWidth=2;fillColor=#ffcd28;gradientColor=#ffa500;strokeColor=#d79b00;endArrow=none;startFill=0;shape=link;" parent="1" source="-qzhcd2LBYuXXIxxv2qr-93" target="-qzhcd2LBYuXXIxxv2qr-54" edge="1">
          <mxGeometry relative="1" as="geometry" />
        </mxCell>
        <mxCell id="-qzhcd2LBYuXXIxxv2qr-96" value="1" style="text;html=1;align=center;verticalAlign=middle;whiteSpace=wrap;rounded=0;fontFamily=Architects Daughter;fontSource=https%3A%2F%2Ffonts.googleapis.com%2Fcss%3Ffamily%3DArchitects%2BDaughter;fillColor=#ffcd28;gradientColor=#ffa500;strokeColor=#d79b00;" parent="1" vertex="1">
          <mxGeometry x="310" y="410" width="30" height="10" as="geometry" />
        </mxCell>
        <mxCell id="-qzhcd2LBYuXXIxxv2qr-97" value="m" style="text;html=1;align=center;verticalAlign=middle;whiteSpace=wrap;rounded=0;fontFamily=Architects Daughter;fontSource=https%3A%2F%2Ffonts.googleapis.com%2Fcss%3Ffamily%3DArchitects%2BDaughter;fillColor=#ffcd28;gradientColor=#ffa500;strokeColor=#d79b00;" parent="1" vertex="1">
          <mxGeometry x="610" y="700" width="30" height="20" as="geometry" />
        </mxCell>
        <mxCell id="cyP2X10ie1hHQHi7Uke7-2" style="edgeStyle=orthogonalEdgeStyle;rounded=0;orthogonalLoop=1;jettySize=auto;html=1;entryX=0.75;entryY=0;entryDx=0;entryDy=0;curved=1;" edge="1" parent="1" source="cyP2X10ie1hHQHi7Uke7-1" target="-qzhcd2LBYuXXIxxv2qr-2">
          <mxGeometry relative="1" as="geometry" />
        </mxCell>
        <mxCell id="cyP2X10ie1hHQHi7Uke7-1" value="&lt;span style=&quot;font-size: 17px;&quot;&gt;&lt;b style=&quot;&quot;&gt;&lt;u style=&quot;&quot;&gt;id&lt;/u&gt;&lt;/b&gt;&lt;/span&gt;" style="ellipse;whiteSpace=wrap;html=1;sketch=1;hachureGap=4;jiggle=2;curveFitting=1;fontFamily=Architects Daughter;fontSource=https%3A%2F%2Ffonts.googleapis.com%2Fcss%3Ffamily%3DArchitects%2BDaughter;fillColor=#f5f5f5;strokeColor=#666666;gradientColor=#b3b3b3;" vertex="1" parent="1">
          <mxGeometry x="310" y="230" width="70" height="40" as="geometry" />
        </mxCell>
        <mxCell id="cyP2X10ie1hHQHi7Uke7-21" style="rounded=0;orthogonalLoop=1;jettySize=auto;html=1;entryX=0;entryY=0.5;entryDx=0;entryDy=0;fillColor=#ffe6cc;strokeColor=#d79b00;strokeWidth=2;endArrow=none;startFill=0;shape=link;" edge="1" parent="1" source="cyP2X10ie1hHQHi7Uke7-3" target="cyP2X10ie1hHQHi7Uke7-20">
          <mxGeometry relative="1" as="geometry" />
        </mxCell>
        <mxCell id="cyP2X10ie1hHQHi7Uke7-3" value="&lt;font color=&quot;#000000&quot;&gt;&lt;span style=&quot;font-size: 20px;&quot;&gt;&lt;b&gt;Wallet_Transaction&lt;/b&gt;&lt;/span&gt;&lt;/font&gt;" style="rounded=0;whiteSpace=wrap;html=1;sketch=1;hachureGap=4;jiggle=2;curveFitting=1;fontFamily=Architects Daughter;fontSource=https%3A%2F%2Ffonts.googleapis.com%2Fcss%3Ffamily%3DArchitects%2BDaughter;fillColor=#647687;strokeColor=#314354;fontColor=#ffffff;" vertex="1" parent="1">
          <mxGeometry x="-120" y="170" width="220" height="60" as="geometry" />
        </mxCell>
        <mxCell id="cyP2X10ie1hHQHi7Uke7-5" value="" style="edgeStyle=orthogonalEdgeStyle;rounded=0;orthogonalLoop=1;jettySize=auto;html=1;curved=1;" edge="1" parent="1" source="cyP2X10ie1hHQHi7Uke7-4" target="-qzhcd2LBYuXXIxxv2qr-33">
          <mxGeometry relative="1" as="geometry" />
        </mxCell>
        <mxCell id="cyP2X10ie1hHQHi7Uke7-4" value="&lt;span style=&quot;font-size: 17px;&quot;&gt;&lt;b&gt;&lt;u&gt;id&lt;/u&gt;&lt;/b&gt;&lt;/span&gt;" style="ellipse;whiteSpace=wrap;html=1;sketch=1;hachureGap=4;jiggle=2;curveFitting=1;fontFamily=Architects Daughter;fontSource=https%3A%2F%2Ffonts.googleapis.com%2Fcss%3Ffamily%3DArchitects%2BDaughter;fillColor=#f5f5f5;strokeColor=#666666;gradientColor=#b3b3b3;" vertex="1" parent="1">
          <mxGeometry x="-170" y="560" width="90" height="35" as="geometry" />
        </mxCell>
        <mxCell id="cyP2X10ie1hHQHi7Uke7-7" value="" style="edgeStyle=orthogonalEdgeStyle;rounded=0;orthogonalLoop=1;jettySize=auto;html=1;curved=1;" edge="1" parent="1" source="cyP2X10ie1hHQHi7Uke7-6" target="-qzhcd2LBYuXXIxxv2qr-51">
          <mxGeometry relative="1" as="geometry" />
        </mxCell>
        <mxCell id="cyP2X10ie1hHQHi7Uke7-6" value="&lt;span style=&quot;font-size: 17px;&quot;&gt;&lt;b&gt;&lt;u&gt;id&lt;/u&gt;&lt;/b&gt;&lt;/span&gt;" style="ellipse;whiteSpace=wrap;html=1;sketch=1;hachureGap=4;jiggle=2;curveFitting=1;fontFamily=Architects Daughter;fontSource=https%3A%2F%2Ffonts.googleapis.com%2Fcss%3Ffamily%3DArchitects%2BDaughter;fillColor=#f5f5f5;strokeColor=#666666;gradientColor=#b3b3b3;" vertex="1" parent="1">
          <mxGeometry x="95" y="900" width="90" height="35" as="geometry" />
        </mxCell>
        <mxCell id="cyP2X10ie1hHQHi7Uke7-9" style="edgeStyle=orthogonalEdgeStyle;rounded=0;orthogonalLoop=1;jettySize=auto;html=1;curved=1;" edge="1" parent="1" source="cyP2X10ie1hHQHi7Uke7-8" target="-qzhcd2LBYuXXIxxv2qr-54">
          <mxGeometry relative="1" as="geometry" />
        </mxCell>
        <mxCell id="cyP2X10ie1hHQHi7Uke7-8" value="&lt;span style=&quot;font-size: 17px;&quot;&gt;&lt;b&gt;&lt;u&gt;id&lt;/u&gt;&lt;/b&gt;&lt;/span&gt;" style="ellipse;whiteSpace=wrap;html=1;sketch=1;hachureGap=4;jiggle=2;curveFitting=1;fontFamily=Architects Daughter;fontSource=https%3A%2F%2Ffonts.googleapis.com%2Fcss%3Ffamily%3DArchitects%2BDaughter;fillColor=#f5f5f5;strokeColor=#666666;gradientColor=#b3b3b3;" vertex="1" parent="1">
          <mxGeometry x="710" y="770" width="90" height="35" as="geometry" />
        </mxCell>
        <mxCell id="cyP2X10ie1hHQHi7Uke7-11" style="edgeStyle=orthogonalEdgeStyle;rounded=0;orthogonalLoop=1;jettySize=auto;html=1;" edge="1" parent="1" source="cyP2X10ie1hHQHi7Uke7-10" target="cyP2X10ie1hHQHi7Uke7-3">
          <mxGeometry relative="1" as="geometry" />
        </mxCell>
        <mxCell id="cyP2X10ie1hHQHi7Uke7-10" value="&lt;span style=&quot;font-size: 17px;&quot;&gt;&lt;b&gt;&lt;u&gt;id&lt;/u&gt;&lt;/b&gt;&lt;/span&gt;" style="ellipse;whiteSpace=wrap;html=1;sketch=1;hachureGap=4;jiggle=2;curveFitting=1;fontFamily=Architects Daughter;fontSource=https%3A%2F%2Ffonts.googleapis.com%2Fcss%3Ffamily%3DArchitects%2BDaughter;fillColor=#f5f5f5;strokeColor=#666666;gradientColor=#b3b3b3;" vertex="1" parent="1">
          <mxGeometry x="-240" y="155" width="90" height="35" as="geometry" />
        </mxCell>
        <mxCell id="cyP2X10ie1hHQHi7Uke7-12" value="&lt;span style=&quot;font-size: 17px;&quot;&gt;type&lt;/span&gt;" style="ellipse;whiteSpace=wrap;html=1;sketch=1;hachureGap=4;jiggle=2;curveFitting=1;fontFamily=Architects Daughter;fontSource=https%3A%2F%2Ffonts.googleapis.com%2Fcss%3Ffamily%3DArchitects%2BDaughter;fillColor=#f5f5f5;strokeColor=#666666;gradientColor=#b3b3b3;" vertex="1" parent="1">
          <mxGeometry x="-200" y="100" width="100" height="40" as="geometry" />
        </mxCell>
        <mxCell id="cyP2X10ie1hHQHi7Uke7-18" value="" style="edgeStyle=orthogonalEdgeStyle;rounded=0;orthogonalLoop=1;jettySize=auto;html=1;" edge="1" parent="1" source="cyP2X10ie1hHQHi7Uke7-13" target="cyP2X10ie1hHQHi7Uke7-3">
          <mxGeometry relative="1" as="geometry" />
        </mxCell>
        <mxCell id="cyP2X10ie1hHQHi7Uke7-13" value="&lt;span style=&quot;font-size: 17px;&quot;&gt;before&lt;/span&gt;" style="ellipse;whiteSpace=wrap;html=1;sketch=1;hachureGap=4;jiggle=2;curveFitting=1;fontFamily=Architects Daughter;fontSource=https%3A%2F%2Ffonts.googleapis.com%2Fcss%3Ffamily%3DArchitects%2BDaughter;fillColor=#f5f5f5;strokeColor=#666666;fontColor=#333333;dashed=1;dashPattern=12 12;" vertex="1" parent="1">
          <mxGeometry x="-90" y="100" width="100" height="40" as="geometry" />
        </mxCell>
        <mxCell id="cyP2X10ie1hHQHi7Uke7-17" value="" style="edgeStyle=orthogonalEdgeStyle;rounded=0;orthogonalLoop=1;jettySize=auto;html=1;" edge="1" parent="1" source="cyP2X10ie1hHQHi7Uke7-14" target="cyP2X10ie1hHQHi7Uke7-3">
          <mxGeometry relative="1" as="geometry" />
        </mxCell>
        <mxCell id="cyP2X10ie1hHQHi7Uke7-14" value="&lt;span style=&quot;font-size: 17px;&quot;&gt;after&lt;/span&gt;" style="ellipse;whiteSpace=wrap;html=1;sketch=1;hachureGap=4;jiggle=2;curveFitting=1;fontFamily=Architects Daughter;fontSource=https%3A%2F%2Ffonts.googleapis.com%2Fcss%3Ffamily%3DArchitects%2BDaughter;fillColor=#f5f5f5;fontColor=#333333;strokeColor=#666666;dashed=1;dashPattern=8 8;" vertex="1" parent="1">
          <mxGeometry x="30" y="100" width="100" height="40" as="geometry" />
        </mxCell>
        <mxCell id="cyP2X10ie1hHQHi7Uke7-16" value="" style="edgeStyle=orthogonalEdgeStyle;rounded=0;orthogonalLoop=1;jettySize=auto;html=1;" edge="1" parent="1" source="cyP2X10ie1hHQHi7Uke7-15" target="cyP2X10ie1hHQHi7Uke7-3">
          <mxGeometry relative="1" as="geometry" />
        </mxCell>
        <mxCell id="cyP2X10ie1hHQHi7Uke7-15" value="&lt;span style=&quot;font-size: 17px;&quot;&gt;amount&lt;/span&gt;" style="ellipse;whiteSpace=wrap;html=1;sketch=1;hachureGap=4;jiggle=2;curveFitting=1;fontFamily=Architects Daughter;fontSource=https%3A%2F%2Ffonts.googleapis.com%2Fcss%3Ffamily%3DArchitects%2BDaughter;fillColor=#f5f5f5;strokeColor=#666666;gradientColor=#b3b3b3;" vertex="1" parent="1">
          <mxGeometry x="-240" y="200" width="100" height="40" as="geometry" />
        </mxCell>
        <mxCell id="cyP2X10ie1hHQHi7Uke7-19" style="edgeStyle=orthogonalEdgeStyle;rounded=0;orthogonalLoop=1;jettySize=auto;html=1;exitX=1;exitY=1;exitDx=0;exitDy=0;entryX=0.085;entryY=0.021;entryDx=0;entryDy=0;entryPerimeter=0;" edge="1" parent="1" source="cyP2X10ie1hHQHi7Uke7-12" target="cyP2X10ie1hHQHi7Uke7-3">
          <mxGeometry relative="1" as="geometry" />
        </mxCell>
        <mxCell id="cyP2X10ie1hHQHi7Uke7-20" value="&lt;b&gt;make&lt;/b&gt;" style="rhombus;whiteSpace=wrap;html=1;sketch=1;hachureGap=4;jiggle=2;curveFitting=1;fontFamily=Architects Daughter;fontSource=https%3A%2F%2Ffonts.googleapis.com%2Fcss%3Ffamily%3DArchitects%2BDaughter;fillColor=#fff2cc;gradientColor=#ffd966;strokeColor=#d6b656;" vertex="1" parent="1">
          <mxGeometry x="70" y="240" width="90" height="60" as="geometry" />
        </mxCell>
        <mxCell id="cyP2X10ie1hHQHi7Uke7-35" style="rounded=0;orthogonalLoop=1;jettySize=auto;html=1;endArrow=none;startFill=0;strokeWidth=2;fillColor=#0050ef;strokeColor=#001DBC;shape=link;" edge="1" parent="1" source="cyP2X10ie1hHQHi7Uke7-23" target="cyP2X10ie1hHQHi7Uke7-34">
          <mxGeometry relative="1" as="geometry" />
        </mxCell>
        <mxCell id="cyP2X10ie1hHQHi7Uke7-23" value="&lt;font color=&quot;#000000&quot;&gt;&lt;span style=&quot;font-size: 20px;&quot;&gt;&lt;b&gt;Payment&lt;/b&gt;&lt;/span&gt;&lt;/font&gt;" style="rounded=0;whiteSpace=wrap;html=1;sketch=1;hachureGap=4;jiggle=2;curveFitting=1;fontFamily=Architects Daughter;fontSource=https%3A%2F%2Ffonts.googleapis.com%2Fcss%3Ffamily%3DArchitects%2BDaughter;fillColor=#647687;strokeColor=#314354;fontColor=#ffffff;" vertex="1" parent="1">
          <mxGeometry x="730" y="540" width="120" height="60" as="geometry" />
        </mxCell>
        <mxCell id="cyP2X10ie1hHQHi7Uke7-30" style="edgeStyle=orthogonalEdgeStyle;rounded=0;orthogonalLoop=1;jettySize=auto;html=1;" edge="1" parent="1" source="cyP2X10ie1hHQHi7Uke7-24" target="cyP2X10ie1hHQHi7Uke7-23">
          <mxGeometry relative="1" as="geometry" />
        </mxCell>
        <mxCell id="cyP2X10ie1hHQHi7Uke7-24" value="&lt;span style=&quot;font-size: 17px;&quot;&gt;&lt;b&gt;&lt;u&gt;id&lt;/u&gt;&lt;/b&gt;&lt;/span&gt;" style="ellipse;whiteSpace=wrap;html=1;sketch=1;hachureGap=4;jiggle=2;curveFitting=1;fontFamily=Architects Daughter;fontSource=https%3A%2F%2Ffonts.googleapis.com%2Fcss%3Ffamily%3DArchitects%2BDaughter;fillColor=#f5f5f5;strokeColor=#666666;gradientColor=#b3b3b3;" vertex="1" parent="1">
          <mxGeometry x="740" y="427.5" width="90" height="35" as="geometry" />
        </mxCell>
        <mxCell id="cyP2X10ie1hHQHi7Uke7-25" value="&lt;span style=&quot;font-size: 17px;&quot;&gt;status&lt;/span&gt;" style="ellipse;whiteSpace=wrap;html=1;sketch=1;hachureGap=4;jiggle=2;curveFitting=1;fontFamily=Architects Daughter;fontSource=https%3A%2F%2Ffonts.googleapis.com%2Fcss%3Ffamily%3DArchitects%2BDaughter;fillColor=#f5f5f5;strokeColor=#666666;gradientColor=#b3b3b3;" vertex="1" parent="1">
          <mxGeometry x="850" y="440" width="100" height="40" as="geometry" />
        </mxCell>
        <mxCell id="cyP2X10ie1hHQHi7Uke7-32" style="edgeStyle=orthogonalEdgeStyle;rounded=0;orthogonalLoop=1;jettySize=auto;html=1;entryX=1;entryY=0.5;entryDx=0;entryDy=0;" edge="1" parent="1" source="cyP2X10ie1hHQHi7Uke7-26" target="cyP2X10ie1hHQHi7Uke7-23">
          <mxGeometry relative="1" as="geometry" />
        </mxCell>
        <mxCell id="cyP2X10ie1hHQHi7Uke7-26" value="&lt;span style=&quot;font-size: 17px;&quot;&gt;amount&lt;/span&gt;" style="ellipse;whiteSpace=wrap;html=1;sketch=1;hachureGap=4;jiggle=2;curveFitting=1;fontFamily=Architects Daughter;fontSource=https%3A%2F%2Ffonts.googleapis.com%2Fcss%3Ffamily%3DArchitects%2BDaughter;fillColor=#f5f5f5;strokeColor=#666666;gradientColor=#b3b3b3;" vertex="1" parent="1">
          <mxGeometry x="910" y="510" width="100" height="40" as="geometry" />
        </mxCell>
        <mxCell id="cyP2X10ie1hHQHi7Uke7-27" value="&lt;span style=&quot;font-size: 17px;&quot;&gt;date&lt;/span&gt;" style="ellipse;whiteSpace=wrap;html=1;sketch=1;hachureGap=4;jiggle=2;curveFitting=1;fontFamily=Architects Daughter;fontSource=https%3A%2F%2Ffonts.googleapis.com%2Fcss%3Ffamily%3DArchitects%2BDaughter;fillColor=#f5f5f5;strokeColor=#666666;gradientColor=#b3b3b3;" vertex="1" parent="1">
          <mxGeometry x="670" y="470" width="100" height="40" as="geometry" />
        </mxCell>
        <mxCell id="cyP2X10ie1hHQHi7Uke7-28" value="&lt;span style=&quot;font-size: 17px;&quot;&gt;method&lt;/span&gt;" style="ellipse;whiteSpace=wrap;html=1;sketch=1;hachureGap=4;jiggle=2;curveFitting=1;fontFamily=Architects Daughter;fontSource=https%3A%2F%2Ffonts.googleapis.com%2Fcss%3Ffamily%3DArchitects%2BDaughter;fillColor=#f5f5f5;strokeColor=#666666;gradientColor=#b3b3b3;" vertex="1" parent="1">
          <mxGeometry x="890" y="590" width="100" height="40" as="geometry" />
        </mxCell>
        <mxCell id="cyP2X10ie1hHQHi7Uke7-29" style="edgeStyle=orthogonalEdgeStyle;rounded=0;orthogonalLoop=1;jettySize=auto;html=1;entryX=0.077;entryY=0.059;entryDx=0;entryDy=0;entryPerimeter=0;" edge="1" parent="1" source="cyP2X10ie1hHQHi7Uke7-27" target="cyP2X10ie1hHQHi7Uke7-23">
          <mxGeometry relative="1" as="geometry" />
        </mxCell>
        <mxCell id="cyP2X10ie1hHQHi7Uke7-31" style="edgeStyle=orthogonalEdgeStyle;rounded=0;orthogonalLoop=1;jettySize=auto;html=1;entryX=0.672;entryY=-0.03;entryDx=0;entryDy=0;entryPerimeter=0;" edge="1" parent="1" source="cyP2X10ie1hHQHi7Uke7-25" target="cyP2X10ie1hHQHi7Uke7-23">
          <mxGeometry relative="1" as="geometry" />
        </mxCell>
        <mxCell id="cyP2X10ie1hHQHi7Uke7-33" style="edgeStyle=orthogonalEdgeStyle;rounded=0;orthogonalLoop=1;jettySize=auto;html=1;entryX=0.921;entryY=1.037;entryDx=0;entryDy=0;entryPerimeter=0;" edge="1" parent="1" source="cyP2X10ie1hHQHi7Uke7-28" target="cyP2X10ie1hHQHi7Uke7-23">
          <mxGeometry relative="1" as="geometry" />
        </mxCell>
        <mxCell id="cyP2X10ie1hHQHi7Uke7-34" value="&lt;b&gt;has&lt;/b&gt;" style="rhombus;whiteSpace=wrap;html=1;sketch=1;hachureGap=4;jiggle=2;curveFitting=1;fontFamily=Architects Daughter;fontSource=https%3A%2F%2Ffonts.googleapis.com%2Fcss%3Ffamily%3DArchitects%2BDaughter;fillColor=#fff2cc;gradientColor=#ffd966;strokeColor=#d6b656;" vertex="1" parent="1">
          <mxGeometry x="575" y="580" width="100" height="40" as="geometry" />
        </mxCell>
        <mxCell id="cyP2X10ie1hHQHi7Uke7-37" value="m" style="text;html=1;align=center;verticalAlign=middle;whiteSpace=wrap;rounded=0;fontFamily=Architects Daughter;fontSource=https%3A%2F%2Ffonts.googleapis.com%2Fcss%3Ffamily%3DArchitects%2BDaughter;fillColor=#1ba1e2;strokeColor=#006EAF;fontColor=#ffffff;fontStyle=1;fontSize=14;" vertex="1" parent="1">
          <mxGeometry x="690" y="550" width="30" height="20" as="geometry" />
        </mxCell>
        <mxCell id="cyP2X10ie1hHQHi7Uke7-38" value="1" style="text;html=1;align=center;verticalAlign=middle;whiteSpace=wrap;rounded=0;fontFamily=Architects Daughter;fontSource=https%3A%2F%2Ffonts.googleapis.com%2Fcss%3Ffamily%3DArchitects%2BDaughter;fillColor=#1ba1e2;strokeColor=#006EAF;fontColor=#ffffff;fontStyle=1;fontSize=14;" vertex="1" parent="1">
          <mxGeometry x="550" y="705" width="20" height="15" as="geometry" />
        </mxCell>
        <mxCell id="cyP2X10ie1hHQHi7Uke7-40" value="1" style="text;html=1;align=center;verticalAlign=middle;whiteSpace=wrap;rounded=0;fontFamily=Architects Daughter;fontSource=https%3A%2F%2Ffonts.googleapis.com%2Fcss%3Ffamily%3DArchitects%2BDaughter;fillColor=#fff2cc;strokeColor=#d6b656;fontStyle=1;fontSize=14;" vertex="1" parent="1">
          <mxGeometry x="270" y="305" width="30" height="20" as="geometry" />
        </mxCell>
        <mxCell id="cyP2X10ie1hHQHi7Uke7-41" value="m" style="text;html=1;align=center;verticalAlign=middle;whiteSpace=wrap;rounded=0;fontFamily=Architects Daughter;fontSource=https%3A%2F%2Ffonts.googleapis.com%2Fcss%3Ffamily%3DArchitects%2BDaughter;fillColor=#fff2cc;strokeColor=#d6b656;fontStyle=1;fontSize=14;" vertex="1" parent="1">
          <mxGeometry x="-25" y="240" width="30" height="20" as="geometry" />
        </mxCell>
        <mxCell id="cyP2X10ie1hHQHi7Uke7-46" value="&lt;span style=&quot;font-size: 17px;&quot;&gt;Balance&lt;/span&gt;" style="ellipse;whiteSpace=wrap;html=1;sketch=1;hachureGap=4;jiggle=2;curveFitting=1;fontFamily=Architects Daughter;fontSource=https%3A%2F%2Ffonts.googleapis.com%2Fcss%3Ffamily%3DArchitects%2BDaughter;fillColor=#f5f5f5;strokeColor=#666666;gradientColor=#b3b3b3;" vertex="1" parent="1">
          <mxGeometry x="30" y="302.5" width="70" height="37.5" as="geometry" />
        </mxCell>
        <mxCell id="cyP2X10ie1hHQHi7Uke7-48" style="edgeStyle=orthogonalEdgeStyle;rounded=0;orthogonalLoop=1;jettySize=auto;html=1;exitX=0;exitY=1;exitDx=0;exitDy=0;entryX=0.782;entryY=0.09;entryDx=0;entryDy=0;entryPerimeter=0;strokeWidth=3;fillColor=#ffcd28;strokeColor=#d79b00;curved=1;sketch=1;curveFitting=1;jiggle=2;gradientColor=#ffa500;" edge="1" parent="1" source="cyP2X10ie1hHQHi7Uke7-20" target="cyP2X10ie1hHQHi7Uke7-46">
          <mxGeometry relative="1" as="geometry" />
        </mxCell>
      </root>
    </mxGraphModel>
  </diagram>
</mxfile>
